<svg width="1232" height="922" viewBox="0 0 1232 922" fill="none" xmlns="http://www.w3.org/2000/svg">
<path d="M1146.22 921.07L1230 584.309C1232.43 574.546 1232.15 564.303 1229.18 554.689L1087.74 95.929C1084.48 85.35 1078.11 75.994 1069.47 69.074C1060.83 62.155 1050.31 57.99 1039.27 57.119L319.27 0.488982C310.923 -0.173018 302.535 1.07098 294.739 4.12698C286.943 7.18298 279.944 11.971 274.27 18.129L14.71 299.859C9.38999 305.633 5.36099 312.473 2.89199 319.926C0.422985 327.378 -0.430014 335.271 0.389986 343.079L61.14 921.08L1146.22 921.07Z" fill="#F4F4F4"/>
<path d="M771.65 304.799H715.5V919.51H771.65V304.799Z" fill="#DADDDF"/>
<path d="M841.19 742.6H745.87V849.12H841.19V742.6Z" fill="#B2B6BB"/>
<path d="M823.22 742.6H863.05V752.89H861.57V849.12H826.18V752.89H823.22V742.6Z" fill="#858990"/>
<path d="M822.75 742.6H743.57V752.89H822.75V742.6Z" fill="#B2B6BB"/>
<path d="M745.87 754.209H830.52L839.06 752.889H745.87V754.209Z" fill="#858990"/>
<path d="M1038.7 397.639H910.14V504.159H1038.7V397.639Z" fill="#DADDDF"/>
<path d="M1011.48 397.639H1040.94V407.929H1038.7V504.159H1015.96V407.929H1011.48V397.639Z" fill="#B2B6BB"/>
<path d="M1014.41 397.639H906.75V407.929H1014.41V397.639Z" fill="#B2B6BB"/>
<path d="M1024 407.93H910.14V409.25H1024V407.93Z" fill="#B2B6BB"/>
<path d="M1066.49 304.799H709.181V317.559H1053.85V504.479H709.181V518.479H1053.85V919.51H1066.49V304.799Z" fill="white"/>
<path d="M1122.64 304.799H1066.49V919.51H1122.64V304.799Z" fill="#DADDDF"/>
<path d="M715.5 919.5V304.789H702.86V919.5H715.5Z" fill="white"/>
<path d="M1058.86 849.119H711.59V863.12H1058.86V849.119Z" fill="white"/>
<path d="M1038.56 677.389H856.59V849.119H1038.56V677.389Z" fill="#DADDDF"/>
<path d="M1009.6 677.389H1040.94V693.979H1038.56V849.119H1014.36V693.979H1009.6V677.389Z" fill="#B2B6BB"/>
<path d="M1008.83 677.389H852.98V693.979H1008.83V677.389Z" fill="#DADDDF"/>
<path d="M1022.92 693.979H856.59V696.109H1022.92V693.979Z" fill="#B2B6BB"/>
<path d="M232.64 906.86C234 906.85 235.347 907.12 236.604 907.63C237.862 908.15 239.004 908.91 239.967 909.87C240.93 910.83 241.693 911.97 242.214 913.23C242.734 914.48 243.002 915.83 243 917.19C243 917.48 242.942 917.77 242.83 918.04C242.717 918.32 242.552 918.56 242.344 918.77C242.136 918.98 241.889 919.14 241.617 919.25C241.345 919.36 241.054 919.42 240.76 919.42H224.26C223.348 919.42 222.456 919.15 221.691 918.66C220.926 918.16 220.321 917.45 219.95 916.62L198.4 868.32L222.51 840.318C222.1 841.668 232.64 906.86 232.64 906.86Z" fill="#3F4249"/>
<path d="M113.37 867.14H154.25L137.82 882.93C136.647 884.06 135.775 885.46 135.282 887.02C134.79 888.57 134.693 890.22 135 891.82L137.89 906.82C140.499 906.82 143.001 907.86 144.845 909.7C146.69 911.55 147.728 914.05 147.73 916.66V917.15C147.728 917.74 147.491 918.31 147.071 918.73C146.651 919.14 146.083 919.38 145.49 919.38H130.49C129.609 919.38 128.745 919.13 127.995 918.67C127.246 918.2 126.642 917.54 126.25 916.75L112.25 888.24C110.382 884.45 109.948 880.11 111.03 876.02L113.37 867.14Z" fill="#3F4249"/>
<path d="M91.111 834.859C82.491 832.239 66.511 822.999 59.111 813.559C58.827 813.204 58.672 812.763 58.672 812.309C58.672 811.855 58.827 811.414 59.111 811.059C59.411 810.688 59.834 810.437 60.304 810.351C60.773 810.264 61.258 810.349 61.671 810.589C126.551 847.189 193.211 803.829 193.211 803.829C193.667 801.3 194.675 798.903 196.163 796.808C197.651 794.713 199.583 792.972 201.821 791.709C206.299 789.187 211.35 787.858 216.489 787.85C221.628 787.841 226.684 789.153 231.171 791.659C232.734 792.542 234.468 793.081 236.256 793.24C238.045 793.399 239.846 793.173 241.541 792.579L251.731 788.999C252.146 788.852 252.588 788.8 253.026 788.848C253.464 788.896 253.885 789.042 254.258 789.276C254.631 789.509 254.947 789.824 255.181 790.197C255.415 790.57 255.562 790.991 255.611 791.429L255.931 794.429C256.412 798.833 255.907 803.29 254.45 807.474C252.994 811.658 250.623 815.466 247.511 818.619L204.001 862.71C201.578 865.16 199.763 868.15 198.701 871.43C197.638 874.71 197.357 878.19 197.881 881.6L201.761 906.95C204.498 906.95 207.123 908.04 209.058 909.97C210.993 911.91 212.081 914.53 212.081 917.27C212.081 917.56 212.023 917.85 211.91 918.13C211.798 918.4 211.633 918.64 211.425 918.85C211.217 919.06 210.97 919.23 210.698 919.34C210.426 919.45 210.135 919.51 209.841 919.51H193.341C192.426 919.51 191.53 919.24 190.763 918.75C189.996 918.25 189.391 917.54 189.021 916.7L167.091 867.22H123.651L107.221 883C106.05 884.13 105.179 885.53 104.687 887.08C104.194 888.63 104.096 890.28 104.401 891.88L107.291 906.88C109.899 906.88 112.4 907.91 114.245 909.76C116.09 911.6 117.128 914.1 117.131 916.71C117.131 917.43 116.843 918.13 116.331 918.64C115.819 919.15 115.125 919.44 114.401 919.44H99.911C99.029 919.44 98.165 919.19 97.416 918.73C96.666 918.26 96.062 917.6 95.671 916.81L81.621 888.29C79.756 884.5 79.326 880.16 80.411 876.08L91.111 834.859Z" fill="#868A91"/>
<path d="M225.39 798.914C226.199 798.106 225.901 796.498 224.726 795.322C223.55 794.147 221.942 793.849 221.134 794.657C220.325 795.466 220.623 797.074 221.798 798.249C222.974 799.425 224.582 799.723 225.39 798.914Z" fill="#3F4249"/>
<path d="M100.841 856.17C100.842 858.25 100.433 860.31 99.637 862.23C98.842 864.15 97.675 865.9 96.203 867.37C94.732 868.84 92.985 870.01 91.063 870.8C89.141 871.6 87.081 872 85.001 872C83.843 872 82.69 871.87 81.561 871.62L89.521 841C92.791 841.97 95.66 843.971 97.7 846.705C99.74 849.439 100.841 852.759 100.841 856.17Z" fill="#3F4249"/>
<path d="M169.86 873.49L172.7 872.34C174.568 871.59 176.615 871.41 178.583 871.83C180.552 872.24 182.353 873.23 183.76 874.67C184.94 875.88 185.8 877.36 186.263 878.99C186.725 880.61 186.776 882.33 186.41 883.98L185.89 886.32C185.478 888.17 185.592 890.11 186.22 891.9L186.44 892.52C187.206 894.71 187.391 897.05 186.975 899.33C186.56 901.61 185.559 903.74 184.07 905.52L169.86 873.49Z" fill="#3F4249"/>
<path d="M189.1 806.289L186.31 823.289C184.74 832.849 176.31 839.069 167.65 836.969L159.65 835.029C157.851 834.592 155.979 834.544 154.16 834.889L137 838.159C128.64 839.749 120.24 835.609 115.74 827.689L114.33 825.199C149.32 826.289 178.59 812.129 189.1 806.289Z" fill="#3F4249"/>
<path d="M80.54 819.059C79.168 820.093 77.547 820.745 75.841 820.95C74.135 821.155 72.406 820.906 70.828 820.226C69.25 819.547 67.879 818.462 66.856 817.082C65.832 815.702 65.192 814.076 65 812.369C70.006 814.984 75.2 817.22 80.54 819.059Z" fill="#3F4249"/>
<path d="M233.86 811.889C236.132 808.742 237.119 804.848 236.62 800.999L235.62 793.169C237.636 793.471 239.696 793.276 241.62 792.599L251.73 788.999C252.145 788.851 252.588 788.799 253.025 788.847C253.463 788.895 253.884 789.042 254.258 789.275C254.631 789.509 254.946 789.824 255.18 790.197C255.415 790.57 255.561 790.991 255.61 791.429L255.93 794.429C256.409 798.833 255.903 803.289 254.446 807.473C252.99 811.657 250.621 815.464 247.51 818.619L234.73 831.569L232.86 828.159C231.464 825.632 230.817 822.76 230.994 819.878C231.172 816.997 232.165 814.226 233.86 811.889Z" fill="#B2B6BB"/>
<path d="M195.24 806.73L187.34 826.64C186.424 829.066 186.337 831.727 187.093 834.208C187.849 836.688 189.406 838.848 191.52 840.35C196.52 843.65 203.28 843.86 209.89 837.5C218.89 828.89 215.14 809.77 210.54 802.41" fill="#3F4249"/>
<path d="M123.65 867.22L132.33 857.709L125.07 873.63L123.65 867.22Z" fill="#3F4249"/>
<path d="M245.54 791.109L251.6 788.999C252.03 788.844 252.49 788.79 252.945 788.841C253.399 788.891 253.836 789.045 254.222 789.29C254.608 789.535 254.932 789.865 255.171 790.255C255.41 790.644 255.557 791.083 255.6 791.539L256.07 795.829C255.318 796.017 254.546 796.114 253.77 796.119C252.073 796.109 250.41 795.638 248.96 794.755C247.51 793.873 246.328 792.612 245.54 791.109Z" fill="#3F4249"/>
<path d="M196.001 804.809L187.721 825.419C187.113 826.86 187.039 828.47 187.512 829.96C187.985 831.45 188.974 832.723 190.301 833.549C194.411 836.099 200.971 837.879 208.151 830.979C215.761 823.669 214.701 808.119 209.721 801.109" fill="#868A91"/>
<path d="M196.001 804.809L187.721 825.419C187.113 826.86 187.039 828.47 187.512 829.96C187.985 831.45 188.974 832.723 190.301 833.549C194.411 836.099 200.971 837.879 208.151 830.979C215.761 823.669 214.701 808.119 209.721 801.109" stroke="#3F4249" stroke-width="1.04" stroke-miterlimit="10" stroke-linecap="round"/>
<path d="M167.08 867.22C167.08 867.22 157.84 856.329 132.33 857.709L127.99 867.22H167.08Z" fill="#B2B6BB"/>
<path d="M91.74 832.178L91.11 834.858C86.797 833.441 82.653 831.557 78.75 829.238L91.74 832.178Z" fill="#3F4249"/>
<path d="M255.29 792.699C255.29 792.699 256.83 809.179 243.29 805.489" stroke="#3F4249" stroke-width="1.04" stroke-miterlimit="10" stroke-linecap="round"/>
<path d="M966.93 170.75H268.77C259.282 170.75 251.59 178.442 251.59 187.93V707.51C251.59 716.998 259.282 724.69 268.77 724.69H966.93C976.42 724.69 984.11 716.998 984.11 707.51V187.93C984.11 178.442 976.42 170.75 966.93 170.75Z" fill="#4D61FC"/>
<path opacity="0.6" d="M966.93 170.75H268.77C259.282 170.75 251.59 178.442 251.59 187.93V707.51C251.59 716.998 259.282 724.69 268.77 724.69H966.93C976.42 724.69 984.11 716.998 984.11 707.51V187.93C984.11 178.442 976.42 170.75 966.93 170.75Z" fill="white"/>
<path d="M958.66 170.75H260.5C251.012 170.75 243.32 178.442 243.32 187.93V707.51C243.32 716.998 251.012 724.69 260.5 724.69H958.66C968.15 724.69 975.84 716.998 975.84 707.51V187.93C975.84 178.442 968.15 170.75 958.66 170.75Z" fill="white"/>
<path d="M260.5 170.75H300.36V724.7H260.5C255.944 724.7 251.574 722.89 248.352 719.668C245.13 716.446 243.32 712.076 243.32 707.52V187.93C243.32 183.374 245.13 179.004 248.352 175.782C251.574 172.56 255.944 170.75 260.5 170.75Z" fill="#4D61FC"/>
<path d="M283.66 197.309H260.02C258.164 197.309 256.66 198.811 256.66 200.664C256.66 202.517 258.164 204.019 260.02 204.019H283.66C285.516 204.019 287.02 202.517 287.02 200.664C287.02 198.811 285.516 197.309 283.66 197.309Z" fill="white"/>
<path d="M278.05 245.1H265.64C264.022 245.1 262.71 246.411 262.71 248.03V260.44C262.71 262.058 264.022 263.37 265.64 263.37H278.05C279.668 263.37 280.98 262.058 280.98 260.44V248.03C280.98 246.411 279.668 245.1 278.05 245.1Z" fill="white"/>
<path d="M278.05 304.42H265.64C264.022 304.42 262.71 305.732 262.71 307.35V319.76C262.71 321.378 264.022 322.69 265.64 322.69H278.05C279.668 322.69 280.98 321.378 280.98 319.76V307.35C280.98 305.732 279.668 304.42 278.05 304.42Z" fill="#4D61FC"/>
<path d="M278.05 363.75H265.64C264.022 363.75 262.71 365.062 262.71 366.68V379.09C262.71 380.708 264.022 382.02 265.64 382.02H278.05C279.668 382.02 280.98 380.708 280.98 379.09V366.68C280.98 365.062 279.668 363.75 278.05 363.75Z" fill="#4D61FC"/>
<path d="M278.05 423.068H265.64C264.022 423.068 262.71 424.38 262.71 425.998V438.408C262.71 440.027 264.022 441.338 265.64 441.338H278.05C279.668 441.338 280.98 440.027 280.98 438.408V425.998C280.98 424.38 279.668 423.068 278.05 423.068Z" fill="#4D61FC"/>
<path opacity="0.4" d="M278.05 304.42H265.64C264.022 304.42 262.71 305.732 262.71 307.35V319.76C262.71 321.378 264.022 322.69 265.64 322.69H278.05C279.668 322.69 280.98 321.378 280.98 319.76V307.35C280.98 305.732 279.668 304.42 278.05 304.42Z" fill="white"/>
<path opacity="0.4" d="M278.05 363.75H265.64C264.022 363.75 262.71 365.062 262.71 366.68V379.09C262.71 380.708 264.022 382.02 265.64 382.02H278.05C279.668 382.02 280.98 380.708 280.98 379.09V366.68C280.98 365.062 279.668 363.75 278.05 363.75Z" fill="white"/>
<path opacity="0.4" d="M278.05 423.068H265.64C264.022 423.068 262.71 424.38 262.71 425.998V438.408C262.71 440.027 264.022 441.338 265.64 441.338H278.05C279.668 441.338 280.98 440.027 280.98 438.408V425.998C280.98 424.38 279.668 423.068 278.05 423.068Z" fill="white"/>
<path d="M391.68 194.529H322.94C319.726 194.529 317.12 197.135 317.12 200.349C317.12 203.564 319.726 206.169 322.94 206.169H391.68C394.894 206.169 397.5 203.564 397.5 200.349C397.5 197.135 394.894 194.529 391.68 194.529Z" fill="#868A91"/>
<path d="M952.46 189.09H891.77C889.87 189.09 888.33 190.63 888.33 192.53V208.17C888.33 210.07 889.87 211.61 891.77 211.61H952.46C954.36 211.61 955.9 210.07 955.9 208.17V192.53C955.9 190.63 954.36 189.09 952.46 189.09Z" fill="#4D61FC"/>
<path d="M866.39 189.09H805.701C803.801 189.09 802.261 190.63 802.261 192.53V208.17C802.261 210.07 803.801 211.61 805.701 211.61H866.39C868.29 211.61 869.83 210.07 869.83 208.17V192.53C869.83 190.63 868.29 189.09 866.39 189.09Z" stroke="#4D61FC" stroke-miterlimit="10"/>
<path d="M287.58 682.745C287.58 674.055 280.536 667.01 271.845 667.01C263.155 667.01 256.11 674.055 256.11 682.745C256.11 691.435 263.155 698.48 271.845 698.48C280.536 698.48 287.58 691.435 287.58 682.745Z" fill="white"/>
<path d="M271.85 683.208C270.718 683.208 269.626 682.786 268.789 682.024C267.951 681.263 267.427 680.216 267.32 679.088L267.02 675.818C266.956 675.186 267.025 674.548 267.223 673.944C267.421 673.34 267.743 672.785 268.169 672.314C268.595 671.843 269.115 671.466 269.696 671.208C270.277 670.951 270.905 670.818 271.54 670.818H272.15C272.786 670.818 273.414 670.951 273.995 671.208C274.575 671.466 275.096 671.843 275.522 672.314C275.948 672.785 276.27 673.34 276.468 673.944C276.666 674.548 276.735 675.186 276.67 675.818L276.37 679.088C276.264 680.214 275.741 681.259 274.906 682.021C274.07 682.783 272.981 683.206 271.85 683.208Z" fill="#4D61FC"/>
<path d="M285.171 691.12C284.548 692.123 283.81 693.05 282.971 693.88C281.299 695.552 279.272 696.826 277.041 697.607C274.809 698.388 272.43 698.656 270.081 698.391C267.731 698.125 265.472 697.334 263.47 696.075C261.469 694.816 259.777 693.123 258.521 691.12C258.905 689.384 259.871 687.83 261.259 686.718C262.646 685.605 264.372 684.999 266.151 685H277.541C279.319 684.999 281.045 685.605 282.432 686.718C283.82 687.83 284.786 689.384 285.171 691.12Z" fill="#4D61FC"/>
<g opacity="0.4">
<path opacity="0.4" d="M271.85 683.208C270.718 683.208 269.626 682.786 268.789 682.024C267.951 681.263 267.427 680.216 267.32 679.088L267.02 675.818C266.956 675.186 267.025 674.548 267.223 673.944C267.421 673.34 267.743 672.785 268.169 672.314C268.595 671.843 269.115 671.466 269.696 671.208C270.277 670.951 270.905 670.818 271.54 670.818H272.15C272.786 670.818 273.414 670.951 273.995 671.208C274.575 671.466 275.096 671.843 275.522 672.314C275.948 672.785 276.27 673.34 276.468 673.944C276.666 674.548 276.735 675.186 276.67 675.818L276.37 679.088C276.264 680.214 275.741 681.259 274.906 682.021C274.07 682.783 272.981 683.206 271.85 683.208Z" fill="white"/>
<path opacity="0.4" d="M285.171 691.118C284.548 692.121 283.81 693.048 282.971 693.878C281.299 695.55 279.272 696.824 277.041 697.605C274.809 698.386 272.43 698.654 270.081 698.389C267.731 698.123 265.472 697.332 263.47 696.073C261.469 694.815 259.777 693.121 258.521 691.118C258.905 689.382 259.871 687.829 261.259 686.716C262.646 685.603 264.372 684.997 266.151 684.998H277.541C279.319 684.997 281.045 685.603 282.432 686.716C283.82 687.829 284.786 689.382 285.171 691.118Z" fill="white"/>
</g>
<path d="M512.11 234.24H326.11C321.145 234.24 317.12 238.265 317.12 243.23V341.6C317.12 346.565 321.145 350.59 326.11 350.59H512.11C517.075 350.59 521.1 346.565 521.1 341.6V243.23C521.1 238.265 517.075 234.24 512.11 234.24Z" fill="#4D61FC"/>
<path opacity="0.5" d="M512.11 234.24H326.11C321.145 234.24 317.12 238.265 317.12 243.23V341.6C317.12 346.565 321.145 350.59 326.11 350.59H512.11C517.075 350.59 521.1 346.565 521.1 341.6V243.23C521.1 238.265 517.075 234.24 512.11 234.24Z" fill="white"/>
<path d="M458.821 300.219H344.131C341.651 300.219 339.641 302.229 339.641 304.709V318.719C339.641 321.199 341.651 323.209 344.131 323.209H458.821C461.3 323.209 463.311 321.199 463.311 318.719V304.709C463.311 302.229 461.3 300.219 458.821 300.219Z" fill="white"/>
<path d="M483.51 269.988H389.67C387.5 269.988 385.74 271.748 385.74 273.918C385.74 276.089 387.5 277.848 389.67 277.848H483.51C485.681 277.848 487.44 276.089 487.44 273.918C487.44 271.748 485.681 269.988 483.51 269.988Z" fill="#4D61FC"/>
<path opacity="0.3" d="M483.51 269.988H389.67C387.5 269.988 385.74 271.748 385.74 273.918C385.74 276.089 387.5 277.848 389.67 277.848H483.51C485.681 277.848 487.44 276.089 487.44 273.918C487.44 271.748 485.681 269.988 483.51 269.988Z" fill="white"/>
<path d="M355.691 289.969C364.555 289.969 371.741 282.783 371.741 273.919C371.741 265.055 364.555 257.869 355.691 257.869C346.826 257.869 339.641 265.055 339.641 273.919C339.641 282.783 346.826 289.969 355.691 289.969Z" fill="#4D61FC"/>
<path opacity="0.3" d="M355.691 289.969C364.555 289.969 371.741 282.783 371.741 273.919C371.741 265.055 364.555 257.869 355.691 257.869C346.826 257.869 339.641 265.055 339.641 273.919C339.641 282.783 346.826 289.969 355.691 289.969Z" fill="white"/>
<path d="M729.441 234.449H543.781C538.827 234.449 534.811 238.465 534.811 243.419V341.609C534.811 346.563 538.827 350.579 543.781 350.579H729.441C734.395 350.579 738.411 346.563 738.411 341.609V243.419C738.411 238.465 734.395 234.449 729.441 234.449Z" fill="#4D61FC"/>
<path d="M676.25 300.309H561.77C559.296 300.309 557.29 302.314 557.29 304.789V318.779C557.29 321.253 559.296 323.259 561.77 323.259H676.25C678.724 323.259 680.73 321.253 680.73 318.779V304.789C680.73 302.314 678.724 300.309 676.25 300.309Z" fill="white"/>
<path d="M700.891 270.139H607.221C605.056 270.139 603.301 271.894 603.301 274.059C603.301 276.224 605.056 277.979 607.221 277.979H700.891C703.056 277.979 704.811 276.224 704.811 274.059C704.811 271.894 703.056 270.139 700.891 270.139Z" fill="#4D61FC"/>
<path opacity="0.3" d="M700.891 270.139H607.221C605.056 270.139 603.301 271.894 603.301 274.059C603.301 276.224 605.056 277.979 607.221 277.979H700.891C703.056 277.979 704.811 276.224 704.811 274.059C704.811 271.894 703.056 270.139 700.891 270.139Z" fill="white"/>
<path d="M573.31 290.089C582.158 290.089 589.33 282.916 589.33 274.069C589.33 265.221 582.158 258.049 573.31 258.049C564.462 258.049 557.29 265.221 557.29 274.069C557.29 282.916 564.462 290.089 573.31 290.089Z" fill="#4D61FC"/>
<path opacity="0.3" d="M573.31 290.089C582.158 290.089 589.33 282.916 589.33 274.069C589.33 265.221 582.158 258.049 573.31 258.049C564.462 258.049 557.29 265.221 557.29 274.069C557.29 282.916 564.462 290.089 573.31 290.089Z" fill="white"/>
<path d="M946.94 234.449H761.281C756.327 234.449 752.311 238.465 752.311 243.419V341.609C752.311 346.563 756.327 350.579 761.281 350.579H946.94C951.89 350.579 955.91 346.563 955.91 341.609V243.419C955.91 238.465 951.89 234.449 946.94 234.449Z" fill="#B2B6BB"/>
<path d="M893.75 300.309H779.27C776.796 300.309 774.79 302.314 774.79 304.789V318.779C774.79 321.253 776.796 323.259 779.27 323.259H893.75C896.22 323.259 898.23 321.253 898.23 318.779V304.789C898.23 302.314 896.22 300.309 893.75 300.309Z" fill="white"/>
<path d="M918.39 270.139H824.72C822.56 270.139 820.8 271.894 820.8 274.059C820.8 276.224 822.56 277.979 824.72 277.979H918.39C920.56 277.979 922.31 276.224 922.31 274.059C922.31 271.894 920.56 270.139 918.39 270.139Z" fill="#4D61FC"/>
<path d="M918.39 270.139H824.72C822.56 270.139 820.8 271.894 820.8 274.059C820.8 276.224 822.56 277.979 824.72 277.979H918.39C920.56 277.979 922.31 276.224 922.31 274.059C922.31 271.894 920.56 270.139 918.39 270.139Z" fill="#868A91"/>
<path d="M790.81 290.089C799.658 290.089 806.83 282.916 806.83 274.069C806.83 265.221 799.658 258.049 790.81 258.049C781.962 258.049 774.79 265.221 774.79 274.069C774.79 282.916 781.962 290.089 790.81 290.089Z" fill="#868A91"/>
<path d="M946.94 364.33H761.281C756.327 364.33 752.311 368.346 752.311 373.3V613.9C752.311 618.854 756.327 622.87 761.281 622.87H946.94C951.89 622.87 955.91 618.854 955.91 613.9V373.3C955.91 368.346 951.89 364.33 946.94 364.33Z" fill="#4D61FC"/>
<path opacity="0.85" d="M946.94 364.33H761.281C756.327 364.33 752.311 368.346 752.311 373.3V613.9C752.311 618.854 756.327 622.87 761.281 622.87H946.94C951.89 622.87 955.91 618.854 955.91 613.9V373.3C955.91 368.346 951.89 364.33 946.94 364.33Z" fill="white"/>
<path d="M900.47 428.18L899.55 427.18L882.31 443.27L883.23 444.27C890.17 451.676 894.02 461.452 894 471.602C893.98 481.752 890.09 491.511 883.12 498.889C876.14 506.266 866.62 510.705 856.49 511.3C846.36 511.895 836.38 508.601 828.59 502.09L827.59 501.22L812.511 519.33L813.511 520.2C825.9 530.556 841.78 535.795 857.9 534.85C874.02 533.904 889.18 526.844 900.27 515.11C911.37 503.376 917.57 487.852 917.62 471.702C917.66 455.553 911.54 439.994 900.51 428.2L900.47 428.18Z" fill="#4D61FC"/>
<path opacity="0.5" d="M900.47 428.18L899.55 427.18L882.31 443.27L883.23 444.27C890.17 451.676 894.02 461.452 894 471.602C893.98 481.752 890.09 491.511 883.12 498.889C876.14 506.266 866.62 510.705 856.49 511.3C846.36 511.895 836.38 508.601 828.59 502.09L827.59 501.22L812.511 519.33L813.511 520.2C825.9 530.556 841.78 535.795 857.9 534.85C874.02 533.904 889.18 526.844 900.27 515.11C911.37 503.376 917.57 487.852 917.62 471.702C917.66 455.553 911.54 439.994 900.51 428.2L900.47 428.18Z" fill="white"/>
<path d="M900.47 428.179C892.84 419.998 883.18 413.987 872.47 410.759L871.17 410.389L869.89 410.029C859.41 407.332 848.41 407.363 837.94 410.12C827.47 412.877 817.884 418.268 810.09 425.779L809.09 426.709L825.44 443.709L826.44 442.769C833.85 435.602 843.77 431.606 854.08 431.629C857.71 431.628 861.33 432.119 864.83 433.089C871.86 435.069 878.21 438.943 883.19 444.289L884.12 445.289L901.36 429.199L900.47 428.179Z" fill="#4D61FC"/>
<path d="M828.59 502.088C824.29 498.499 820.79 494.045 818.329 489.014C815.864 483.984 814.487 478.492 814.286 472.894C814.085 467.296 815.065 461.718 817.163 456.524C819.26 451.33 822.43 446.637 826.46 442.748L827.46 441.818L811.111 424.818L810.111 425.758C803.685 431.94 798.635 439.407 795.29 447.672C791.946 455.938 790.383 464.815 790.703 473.726C791.023 482.637 793.219 491.38 797.147 499.384C801.075 507.388 806.648 514.474 813.501 520.178L814.501 521.038L829.63 502.998L828.59 502.088Z" fill="#61656D"/>
<path d="M868.86 462.139H839.36C836.56 462.139 834.29 464.409 834.29 467.209V475.719C834.29 478.519 836.56 480.789 839.36 480.789H868.86C871.66 480.789 873.93 478.519 873.93 475.719V467.209C873.93 464.409 871.66 462.139 868.86 462.139Z" fill="#4D61FC"/>
<path opacity="0.4" d="M868.86 462.139H839.36C836.56 462.139 834.29 464.409 834.29 467.209V475.719C834.29 478.519 836.56 480.789 839.36 480.789H868.86C871.66 480.789 873.93 478.519 873.93 475.719V467.209C873.93 464.409 871.66 462.139 868.86 462.139Z" fill="white"/>
<path d="M467.14 636.309H328.71C326.341 636.309 324.42 638.229 324.42 640.599V699.809C324.42 702.178 326.341 704.099 328.71 704.099H467.14C469.509 704.099 471.43 702.178 471.43 699.809V640.599C471.43 638.229 469.509 636.309 467.14 636.309Z" fill="#4D61FC"/>
<path d="M628.63 636.309H490.2C487.831 636.309 485.91 638.229 485.91 640.599V699.809C485.91 702.178 487.831 704.099 490.2 704.099H628.63C630.999 704.099 632.92 702.178 632.92 699.809V640.599C632.92 638.229 630.999 636.309 628.63 636.309Z" fill="#4D61FC"/>
<path d="M790.13 636.309H651.7C649.331 636.309 647.41 638.229 647.41 640.599V699.809C647.41 702.178 649.331 704.099 651.7 704.099H790.13C792.499 704.099 794.42 702.178 794.42 699.809V640.599C794.42 638.229 792.499 636.309 790.13 636.309Z" fill="#4D61FC"/>
<path d="M951.62 636.309H813.19C810.821 636.309 808.9 638.229 808.9 640.599V699.809C808.9 702.178 810.821 704.099 813.19 704.099H951.62C953.99 704.099 955.91 702.178 955.91 699.809V640.599C955.91 638.229 953.99 636.309 951.62 636.309Z" fill="#4D61FC"/>
<g opacity="0.85">
<path opacity="0.85" d="M467.14 636.309H328.71C326.341 636.309 324.42 638.229 324.42 640.599V699.809C324.42 702.178 326.341 704.099 328.71 704.099H467.14C469.509 704.099 471.43 702.178 471.43 699.809V640.599C471.43 638.229 469.509 636.309 467.14 636.309Z" fill="white"/>
</g>
<g opacity="0.85">
<path opacity="0.85" d="M628.63 636.309H490.2C487.831 636.309 485.91 638.229 485.91 640.599V699.809C485.91 702.178 487.831 704.099 490.2 704.099H628.63C630.999 704.099 632.92 702.178 632.92 699.809V640.599C632.92 638.229 630.999 636.309 628.63 636.309Z" fill="white"/>
</g>
<g opacity="0.85">
<path opacity="0.85" d="M790.13 636.309H651.7C649.331 636.309 647.41 638.229 647.41 640.599V699.809C647.41 702.178 649.331 704.099 651.7 704.099H790.13C792.499 704.099 794.42 702.178 794.42 699.809V640.599C794.42 638.229 792.499 636.309 790.13 636.309Z" fill="white"/>
</g>
<g opacity="0.85">
<path opacity="0.85" d="M951.62 636.309H813.19C810.821 636.309 808.9 638.229 808.9 640.599V699.809C808.9 702.178 810.821 704.099 813.19 704.099H951.62C953.99 704.099 955.91 702.178 955.91 699.809V640.599C955.91 638.229 953.99 636.309 951.62 636.309Z" fill="white"/>
</g>
<path d="M729.33 364.33H328.83C323.876 364.33 319.86 368.346 319.86 373.3V613.84C319.86 618.794 323.876 622.81 328.83 622.81H729.33C734.284 622.81 738.3 618.794 738.3 613.84V373.3C738.3 368.346 734.284 364.33 729.33 364.33Z" fill="#4D61FC"/>
<path opacity="0.85" d="M729.33 364.33H328.83C323.876 364.33 319.86 368.346 319.86 373.3V613.84C319.86 618.794 323.876 622.81 328.83 622.81H729.33C734.284 622.81 738.3 618.794 738.3 613.84V373.3C738.3 368.346 734.284 364.33 729.33 364.33Z" fill="white"/>
<path opacity="0.2" d="M738.3 551.109H320.08V552.019H738.3V551.109Z" fill="#4D61FC"/>
<path opacity="0.2" d="M738.3 481.379H320.08V482.289H738.3V481.379Z" fill="#4D61FC"/>
<path opacity="0.2" d="M738.3 411.639H320.08V412.549H738.3V411.639Z" fill="#4D61FC"/>
<path opacity="0.4" d="M320.08 516.619C320.08 516.619 379.25 538.679 421.37 516.619C463.49 494.559 508.96 444.219 570.81 496.559C622.25 540.099 646.7 444.219 680.81 444.219C714.92 444.219 738.31 508.919 738.31 508.919V613.839C738.31 616.226 737.362 618.515 735.674 620.203C733.986 621.891 731.697 622.839 729.31 622.839H328.84C326.453 622.839 324.164 621.891 322.476 620.203C320.788 618.515 319.84 616.226 319.84 613.839L320.08 516.619Z" fill="#4D61FC"/>
<path d="M376.211 527.329C369.048 527.303 361.895 526.792 354.801 525.799C342.888 524.18 331.165 521.39 319.801 517.469L320.441 515.759C331.693 519.633 343.299 522.393 355.091 523.999C373.251 526.489 399.411 527.099 420.951 515.819C428.811 511.699 436.691 506.659 445.021 501.319C480.471 478.629 520.641 452.909 571.401 495.869C581.121 504.089 590.241 507.689 599.301 506.869C616.111 505.359 629.751 488.799 642.951 472.789C655.451 457.629 667.251 443.299 680.801 443.299C715.141 443.299 738.191 505.949 739.161 508.609L737.441 509.229C733.15 498.026 727.827 487.246 721.541 477.029C705.051 450.659 690.281 445.129 680.801 445.129C668.111 445.129 656.581 459.129 644.361 473.959C630.931 490.259 617.041 507.109 599.461 508.689C589.911 509.549 580.331 505.809 570.221 497.259C548.001 478.449 526.001 471.399 502.841 475.719C482.431 479.529 463.911 491.389 446.011 502.849C437.641 508.209 429.731 513.269 421.801 517.419C412.491 522.299 397.681 527.329 376.211 527.329Z" fill="#4D61FC"/>
<path d="M528.7 477.379C530.335 477.379 531.66 476.054 531.66 474.419C531.66 472.784 530.335 471.459 528.7 471.459C527.065 471.459 525.74 472.784 525.74 474.419C525.74 476.054 527.065 477.379 528.7 477.379Z" fill="#4D61FC"/>
<path d="M598.82 510.92C600.455 510.92 601.78 509.595 601.78 507.96C601.78 506.325 600.455 505 598.82 505C597.186 505 595.86 506.325 595.86 507.96C595.86 509.595 597.186 510.92 598.82 510.92Z" fill="#4D61FC"/>
<path d="M682.24 447.18C683.875 447.18 685.2 445.854 685.2 444.22C685.2 442.585 683.875 441.26 682.24 441.26C680.605 441.26 679.28 442.585 679.28 444.22C679.28 445.854 680.605 447.18 682.24 447.18Z" fill="#4D61FC"/>
<path d="M459.05 497C460.685 497 462.01 495.675 462.01 494.04C462.01 492.405 460.685 491.08 459.05 491.08C457.415 491.08 456.09 492.405 456.09 494.04C456.09 495.675 457.415 497 459.05 497Z" fill="#4D61FC"/>
<path d="M389.601 528.619C391.235 528.619 392.561 527.294 392.561 525.659C392.561 524.024 391.235 522.699 389.601 522.699C387.966 522.699 386.641 524.024 386.641 525.659C386.641 527.294 387.966 528.619 389.601 528.619Z" fill="#4D61FC"/>
<path d="M320.08 520.01C321.715 520.01 323.04 518.685 323.04 517.05C323.04 515.415 321.715 514.09 320.08 514.09C318.445 514.09 317.12 515.415 317.12 517.05C317.12 518.685 318.445 520.01 320.08 520.01Z" fill="#4D61FC"/>
<path d="M738.3 510.92C739.935 510.92 741.26 509.595 741.26 507.96C741.26 506.325 739.935 505 738.3 505C736.665 505 735.34 506.325 735.34 507.96C735.34 509.595 736.665 510.92 738.3 510.92Z" fill="#4D61FC"/>
<path d="M463.271 379.398H338.341C335.126 379.398 332.521 382.004 332.521 385.218C332.521 388.433 335.126 391.038 338.341 391.038H463.271C466.485 391.038 469.091 388.433 469.091 385.218C469.091 382.004 466.485 379.398 463.271 379.398Z" fill="#868A91"/>
<path d="M850.13 379.398H771.831C768.616 379.398 766.011 382.004 766.011 385.218C766.011 388.433 768.616 391.038 771.831 391.038H850.13C853.35 391.038 855.95 388.433 855.95 385.218C855.95 382.004 853.35 379.398 850.13 379.398Z" fill="#868A91"/>
<path d="M774.201 551.109H767.691C766.006 551.109 764.641 552.475 764.641 554.159V560.669C764.641 562.354 766.006 563.719 767.691 563.719H774.201C775.885 563.719 777.251 562.354 777.251 560.669V554.159C777.251 552.475 775.885 551.109 774.201 551.109Z" fill="#4D61FC"/>
<path opacity="0.5" d="M774.201 551.109H767.691C766.006 551.109 764.641 552.475 764.641 554.159V560.669C764.641 562.354 766.006 563.719 767.691 563.719H774.201C775.885 563.719 777.251 562.354 777.251 560.669V554.159C777.251 552.475 775.885 551.109 774.201 551.109Z" fill="white"/>
<path d="M774.201 574.539H767.691C766.006 574.539 764.641 575.905 764.641 577.589V584.099C764.641 585.784 766.006 587.149 767.691 587.149H774.201C775.885 587.149 777.251 585.784 777.251 584.099V577.589C777.251 575.905 775.885 574.539 774.201 574.539Z" fill="#4D61FC"/>
<path d="M774.201 597.969H767.691C766.006 597.969 764.641 599.334 764.641 601.019V607.529C764.641 609.213 766.006 610.579 767.691 610.579H774.201C775.885 610.579 777.251 609.213 777.251 607.529V601.019C777.251 599.334 775.885 597.969 774.201 597.969Z" fill="#61656D"/>
<path d="M876.9 554.359H789.3C787.61 554.359 786.24 555.729 786.24 557.419V557.429C786.24 559.119 787.61 560.489 789.3 560.489H876.9C878.59 560.489 879.96 559.119 879.96 557.429V557.419C879.96 555.729 878.59 554.359 876.9 554.359Z" fill="#4D61FC"/>
<path d="M876.9 577.789H789.3C787.61 577.789 786.24 579.159 786.24 580.849V580.859C786.24 582.549 787.61 583.919 789.3 583.919H876.9C878.59 583.919 879.96 582.549 879.96 580.859V580.849C879.96 579.159 878.59 577.789 876.9 577.789Z" fill="#4D61FC"/>
<path d="M876.9 601.219H789.3C787.61 601.219 786.24 602.589 786.24 604.279V604.289C786.24 605.979 787.61 607.349 789.3 607.349H876.9C878.59 607.349 879.96 605.979 879.96 604.289V604.279C879.96 602.589 878.59 601.219 876.9 601.219Z" fill="#4D61FC"/>
<path opacity="0.5" d="M876.9 554.359H789.3C787.61 554.359 786.24 555.729 786.24 557.419V557.429C786.24 559.119 787.61 560.489 789.3 560.489H876.9C878.59 560.489 879.96 559.119 879.96 557.429V557.419C879.96 555.729 878.59 554.359 876.9 554.359Z" fill="white"/>
<path opacity="0.5" d="M876.9 577.789H789.3C787.61 577.789 786.24 579.159 786.24 580.849V580.859C786.24 582.549 787.61 583.919 789.3 583.919H876.9C878.59 583.919 879.96 582.549 879.96 580.859V580.849C879.96 579.159 878.59 577.789 876.9 577.789Z" fill="white"/>
<path opacity="0.5" d="M876.9 601.219H789.3C787.61 601.219 786.24 602.589 786.24 604.279V604.289C786.24 605.979 787.61 607.349 789.3 607.349H876.9C878.59 607.349 879.96 605.979 879.96 604.289V604.279C879.96 602.589 878.59 601.219 876.9 601.219Z" fill="white"/>
<path d="M940.52 554.359H916.39C914.7 554.359 913.33 555.729 913.33 557.419V557.429C913.33 559.119 914.7 560.489 916.39 560.489H940.52C942.21 560.489 943.58 559.119 943.58 557.429V557.419C943.58 555.729 942.21 554.359 940.52 554.359Z" fill="#4D61FC"/>
<path d="M940.52 577.789H916.39C914.7 577.789 913.33 579.159 913.33 580.849V580.859C913.33 582.549 914.7 583.919 916.39 583.919H940.52C942.21 583.919 943.58 582.549 943.58 580.859V580.849C943.58 579.159 942.21 577.789 940.52 577.789Z" fill="#4D61FC"/>
<path d="M940.52 601.219H916.39C914.7 601.219 913.33 602.589 913.33 604.279V604.289C913.33 605.979 914.7 607.349 916.39 607.349H940.52C942.21 607.349 943.58 605.979 943.58 604.289V604.279C943.58 602.589 942.21 601.219 940.52 601.219Z" fill="#4D61FC"/>
<path d="M445.19 656.27H342.23C340.557 656.27 339.2 657.626 339.2 659.299C339.2 660.973 340.557 662.33 342.23 662.33H445.19C446.864 662.33 448.22 660.973 448.22 659.299C448.22 657.626 446.864 656.27 445.19 656.27Z" fill="#4D61FC"/>
<path opacity="0.15" d="M381.63 674.92H343.49C341.121 674.92 339.2 676.841 339.2 679.21V686.29C339.2 688.659 341.121 690.58 343.49 690.58H381.63C383.999 690.58 385.92 688.659 385.92 686.29V679.21C385.92 676.841 383.999 674.92 381.63 674.92Z" fill="white"/>
<path opacity="0.5" d="M445.19 656.27H342.23C340.557 656.27 339.2 657.626 339.2 659.299C339.2 660.973 340.557 662.33 342.23 662.33H445.19C446.864 662.33 448.22 660.973 448.22 659.299C448.22 657.626 446.864 656.27 445.19 656.27Z" fill="white"/>
<path d="M610.9 656.27H507.94C506.267 656.27 504.91 657.626 504.91 659.299C504.91 660.973 506.267 662.33 507.94 662.33H610.9C612.574 662.33 613.93 660.973 613.93 659.299C613.93 657.626 612.574 656.27 610.9 656.27Z" fill="#4D61FC"/>
<path opacity="0.15" d="M547.34 674.92H509.2C506.831 674.92 504.91 676.841 504.91 679.21V686.29C504.91 688.659 506.831 690.58 509.2 690.58H547.34C549.71 690.58 551.63 688.659 551.63 686.29V679.21C551.63 676.841 549.71 674.92 547.34 674.92Z" fill="white"/>
<path opacity="0.5" d="M610.9 656.27H507.94C506.267 656.27 504.91 657.626 504.91 659.299C504.91 660.973 506.267 662.33 507.94 662.33H610.9C612.574 662.33 613.93 660.973 613.93 659.299C613.93 657.626 612.574 656.27 610.9 656.27Z" fill="white"/>
<path d="M773.381 656.27H670.421C668.747 656.27 667.391 657.626 667.391 659.299C667.391 660.973 668.747 662.33 670.421 662.33H773.381C775.054 662.33 776.411 660.973 776.411 659.299C776.411 657.626 775.054 656.27 773.381 656.27Z" fill="#4D61FC"/>
<path opacity="0.15" d="M709.821 674.92H671.681C669.311 674.92 667.391 676.841 667.391 679.21V686.29C667.391 688.659 669.311 690.58 671.681 690.58H709.821C712.19 690.58 714.111 688.659 714.111 686.29V679.21C714.111 676.841 712.19 674.92 709.821 674.92Z" fill="white"/>
<path opacity="0.5" d="M773.381 656.27H670.421C668.747 656.27 667.391 657.626 667.391 659.299C667.391 660.973 668.747 662.33 670.421 662.33H773.381C775.054 662.33 776.411 660.973 776.411 659.299C776.411 657.626 775.054 656.27 773.381 656.27Z" fill="white"/>
<path d="M933.88 656.27H830.92C829.25 656.27 827.89 657.626 827.89 659.299C827.89 660.973 829.25 662.33 830.92 662.33H933.88C935.55 662.33 936.91 660.973 936.91 659.299C936.91 657.626 935.55 656.27 933.88 656.27Z" fill="#4D61FC"/>
<path d="M870.32 674.92H832.18C829.81 674.92 827.89 676.841 827.89 679.21V686.29C827.89 688.659 829.81 690.58 832.18 690.58H870.32C872.69 690.58 874.61 688.659 874.61 686.29V679.21C874.61 676.841 872.69 674.92 870.32 674.92Z" fill="#4D61FC"/>
<path d="M381.63 674.92H343.49C341.121 674.92 339.2 676.841 339.2 679.21V686.29C339.2 688.659 341.121 690.58 343.49 690.58H381.63C383.999 690.58 385.92 688.659 385.92 686.29V679.21C385.92 676.841 383.999 674.92 381.63 674.92Z" fill="#4D61FC"/>
<path d="M547.34 674.92H509.2C506.831 674.92 504.91 676.841 504.91 679.21V686.29C504.91 688.659 506.831 690.58 509.2 690.58H547.34C549.71 690.58 551.63 688.659 551.63 686.29V679.21C551.63 676.841 549.71 674.92 547.34 674.92Z" fill="#4D61FC"/>
<path d="M709.821 674.92H671.681C669.311 674.92 667.391 676.841 667.391 679.21V686.29C667.391 688.659 669.311 690.58 671.681 690.58H709.821C712.19 690.58 714.111 688.659 714.111 686.29V679.21C714.111 676.841 712.19 674.92 709.821 674.92Z" fill="#4D61FC"/>
<path d="M870.32 674.92H832.18C829.81 674.92 827.89 676.841 827.89 679.21V686.29C827.89 688.659 829.81 690.58 832.18 690.58H870.32C872.69 690.58 874.61 688.659 874.61 686.29V679.21C874.61 676.841 872.69 674.92 870.32 674.92Z" fill="#4D61FC"/>
<path opacity="0.15" d="M381.63 674.92H343.49C341.121 674.92 339.2 676.841 339.2 679.21V686.29C339.2 688.659 341.121 690.58 343.49 690.58H381.63C383.999 690.58 385.92 688.659 385.92 686.29V679.21C385.92 676.841 383.999 674.92 381.63 674.92Z" fill="white"/>
<path opacity="0.15" d="M547.34 674.92H509.2C506.831 674.92 504.91 676.841 504.91 679.21V686.29C504.91 688.659 506.831 690.58 509.2 690.58H547.34C549.71 690.58 551.63 688.659 551.63 686.29V679.21C551.63 676.841 549.71 674.92 547.34 674.92Z" fill="white"/>
<path opacity="0.15" d="M709.821 674.92H671.681C669.311 674.92 667.391 676.841 667.391 679.21V686.29C667.391 688.659 669.311 690.58 671.681 690.58H709.821C712.19 690.58 714.111 688.659 714.111 686.29V679.21C714.111 676.841 712.19 674.92 709.821 674.92Z" fill="white"/>
<path opacity="0.15" d="M381.63 674.92H343.49C341.121 674.92 339.2 676.841 339.2 679.21V686.29C339.2 688.659 341.121 690.58 343.49 690.58H381.63C383.999 690.58 385.92 688.659 385.92 686.29V679.21C385.92 676.841 383.999 674.92 381.63 674.92Z" fill="white"/>
<path opacity="0.15" d="M547.34 674.92H509.2C506.831 674.92 504.91 676.841 504.91 679.21V686.29C504.91 688.659 506.831 690.58 509.2 690.58H547.34C549.71 690.58 551.63 688.659 551.63 686.29V679.21C551.63 676.841 549.71 674.92 547.34 674.92Z" fill="white"/>
<path opacity="0.15" d="M709.821 674.92H671.681C669.311 674.92 667.391 676.841 667.391 679.21V686.29C667.391 688.659 669.311 690.58 671.681 690.58H709.821C712.19 690.58 714.111 688.659 714.111 686.29V679.21C714.111 676.841 712.19 674.92 709.821 674.92Z" fill="white"/>
<path opacity="0.15" d="M870.32 674.92H832.18C829.81 674.92 827.89 676.841 827.89 679.21V686.29C827.89 688.659 829.81 690.58 832.18 690.58H870.32C872.69 690.58 874.61 688.659 874.61 686.29V679.21C874.61 676.841 872.69 674.92 870.32 674.92Z" fill="white"/>
<path opacity="0.5" d="M933.88 656.27H830.92C829.25 656.27 827.89 657.626 827.89 659.299C827.89 660.973 829.25 662.33 830.92 662.33H933.88C935.55 662.33 936.91 660.973 936.91 659.299C936.91 657.626 935.55 656.27 933.88 656.27Z" fill="white"/>
<path d="M43.7 920.38H1175.47C1175.57 920.36 1175.67 920.31 1175.74 920.23C1175.81 920.15 1175.84 920.05 1175.84 919.94C1175.84 919.84 1175.81 919.74 1175.74 919.66C1175.67 919.58 1175.57 919.53 1175.47 919.51H43.7C43.596 919.53 43.501 919.58 43.432 919.66C43.364 919.74 43.326 919.84 43.326 919.94C43.326 920.05 43.364 920.15 43.432 920.23C43.501 920.31 43.596 920.36 43.7 920.38Z" fill="#B1B5BA"/>
<path d="M626 97.59C626 87.479 622.27 77.723 615.524 70.191C608.778 62.659 599.49 57.88 589.44 56.77L584.91 56.5C574.013 56.5 563.561 60.829 555.855 68.535C548.149 76.241 543.82 86.692 543.82 97.59C543.82 108.488 548.149 118.939 555.855 126.645C563.561 134.351 574.013 138.68 584.91 138.68H589.44V138.41C599.489 137.295 608.773 132.515 615.519 124.984C622.264 117.453 625.995 107.7 626 97.59Z" fill="#858990"/>
<path d="M581.63 138.68C604.323 138.68 622.72 120.283 622.72 97.59C622.72 74.897 604.323 56.5 581.63 56.5C558.937 56.5 540.54 74.897 540.54 97.59C540.54 120.283 558.937 138.68 581.63 138.68Z" fill="#B1B5BA"/>
<path d="M581.63 134.149C601.822 134.149 618.19 117.781 618.19 97.589C618.19 77.398 601.822 61.029 581.63 61.029C561.439 61.029 545.07 77.398 545.07 97.589C545.07 117.781 561.439 134.149 581.63 134.149Z" fill="white"/>
<path d="M581.63 134.149C601.822 134.149 618.19 117.781 618.19 97.589C618.19 77.398 601.822 61.029 581.63 61.029C561.439 61.029 545.07 77.398 545.07 97.589C545.07 117.781 561.439 134.149 581.63 134.149Z" fill="#858990"/>
<path opacity="0.9" d="M581.63 134.149C601.822 134.149 618.19 117.781 618.19 97.589C618.19 77.398 601.822 61.029 581.63 61.029C561.439 61.029 545.07 77.398 545.07 97.589C545.07 117.781 561.439 134.149 581.63 134.149Z" fill="white"/>
<path d="M581.64 60.999C582.308 60.986 582.976 61.016 583.64 61.089C574.298 61.579 565.5 65.634 559.06 72.42C552.62 79.206 549.03 88.204 549.03 97.559C549.03 106.914 552.62 115.912 559.06 122.698C565.5 129.484 574.298 133.54 583.64 134.029C583.01 134.029 582.37 134.119 581.64 134.119C571.944 134.119 562.645 130.267 555.788 123.411C548.932 116.555 545.08 107.255 545.08 97.559C545.08 87.863 548.932 78.564 555.788 71.707C562.645 64.851 571.944 60.999 581.64 60.999Z" fill="#858990"/>
<path d="M582 100.4L569.84 76.28C569.643 75.838 569.622 75.337 569.783 74.881C569.944 74.425 570.274 74.047 570.705 73.827C571.135 73.606 571.634 73.559 572.098 73.696C572.563 73.832 572.957 74.141 573.2 74.56L583.63 95.33L597.51 88.53C597.966 88.314 598.489 88.287 598.965 88.457C599.44 88.627 599.829 88.979 600.045 89.435C600.261 89.891 600.287 90.414 600.117 90.89C599.948 91.365 599.596 91.754 599.14 91.97L582 100.4Z" fill="#4D61FC"/>
<path opacity="0.5" d="M612.92 116.359C616.376 110.677 618.196 104.151 618.18 97.499C618.188 92.697 617.248 87.94 615.414 83.502C613.58 79.063 610.888 75.03 607.493 71.634C604.097 68.237 600.065 65.544 595.627 63.709C591.189 61.874 586.432 60.933 581.63 60.939C580.63 60.939 579.63 61.029 578.63 61.029L612.92 116.359Z" fill="white"/>
<path opacity="0.5" d="M573.101 62C571.344 62.431 569.617 62.975 567.931 63.63L605.751 125C607.228 123.694 608.593 122.265 609.831 120.73L573.101 62Z" fill="white"/>
<path d="M68.561 459.369H190.051V304.659H68.561V459.369Z" fill="white"/>
<path d="M84.761 443.809H173.851V320.219H84.761V443.809Z" fill="#DDDDDD"/>
<path d="M193.581 304.67H190.051V459.38H193.581V304.67Z" fill="#DADDDF"/>
<path d="M114.54 398.989C125.199 398.989 133.84 390.348 133.84 379.689C133.84 369.03 125.199 360.389 114.54 360.389C103.881 360.389 95.24 369.03 95.24 379.689C95.24 390.348 103.881 398.989 114.54 398.989Z" fill="#4D61FC"/>
<path d="M162.77 430.439L142.67 398.979L122.57 430.099L162.77 430.439Z" fill="#868A91"/>
<path opacity="0.2" d="M118.96 375.41H160.7V333.67H118.96V375.41Z" fill="black"/>
<path d="M378.21 655.059L373.92 702.249L360.08 854.489C359.183 862.12 358.696 869.8 358.62 877.49C358.62 879.2 358.62 880.91 358.62 882.63L358.8 893.87C358.716 896.24 357.712 898.49 356.001 900.13C354.289 901.78 352.004 902.69 349.63 902.68H348.1C346.791 902.67 345.498 902.39 344.308 901.84C343.118 901.3 342.058 900.51 341.198 899.52C340.339 898.53 339.7 897.37 339.324 896.12C338.948 894.87 338.845 893.55 339.02 892.25L341.63 878.94C342.962 872.19 343.446 865.31 343.07 858.439L337.52 701.219V700.769L335.89 654.609L378.21 655.059Z" fill="#FC9D9D"/>
<path opacity="0.15" d="M373.92 702.25L360.08 854.49C359.184 862.12 358.697 869.8 358.62 877.49C356.71 879.39 353.76 881.06 354.07 872.66L363 719C363.098 717.369 362.751 715.743 361.995 714.295C361.239 712.847 360.104 711.632 358.71 710.78C352.014 706.83 344.909 703.618 337.52 701.2C336.52 700.85 335.87 700.68 335.87 700.68L337.5 700.75L373.92 702.25Z" fill="black"/>
<path d="M353.94 876.26C357.07 876.26 359.7 872.26 360 875.26C360.1 876.34 360.19 877.61 360.19 878.78L360.29 903.32C360.173 907.64 358.925 911.85 356.67 915.54L356.19 916.42C355.493 917.5 354.536 918.39 353.408 919C352.28 919.62 351.015 919.94 349.73 919.94H342.21C340.583 919.95 338.995 919.43 337.688 918.46C336.382 917.49 335.427 916.12 334.97 914.56C334.011 910.92 333.878 907.11 334.58 903.42L340.84 877.12C341.03 876.12 341.33 875.17 341.62 874.12C342.4 871.68 344.75 876.12 347.48 876.12H353.94V876.22V876.26Z" fill="#37383A"/>
<path d="M359.78 891.22L359.2 890.54C358.707 889.97 358.062 889.56 357.342 889.35C356.621 889.14 355.856 889.14 355.135 889.35C354.415 889.56 353.769 889.97 353.276 890.54C352.782 891.1 352.461 891.8 352.35 892.54L348.05 920.21H343.26L344.26 893.03C344.269 892.27 344.06 891.52 343.657 890.87C343.254 890.22 342.674 889.7 341.985 889.37C341.296 889.04 340.528 888.92 339.77 889.01C339.013 889.1 338.298 889.41 337.71 889.9L341.81 873.18C341.901 872.83 342.066 872.5 342.293 872.21C342.521 871.93 342.806 871.69 343.13 871.53C343.454 871.36 343.809 871.27 344.173 871.25C344.537 871.23 344.9 871.29 345.24 871.42L347.48 872.3C349.676 873.16 352.11 873.2 354.33 872.4L356.58 871.62C356.969 871.48 357.384 871.45 357.79 871.5C358.197 871.56 358.584 871.72 358.918 871.96C359.253 872.2 359.526 872.51 359.714 872.88C359.902 873.24 360 873.65 360 874.06V891.17L359.78 891.22Z" fill="#21252B"/>
<path d="M432.18 310.348C432.228 310.799 432.184 311.255 432.052 311.689C431.919 312.123 431.7 312.525 431.407 312.872C431.115 313.218 430.755 313.502 430.35 313.706C429.945 313.91 429.503 314.03 429.05 314.058V314.258L428.15 318.708L427.98 319.538C427.91 319.848 427.84 320.158 427.75 320.448C425.37 329.538 419.89 334.298 411.75 334.298H407.65L408.08 340.198C408.28 342.908 418.03 342.858 420.66 343.538L424.59 348.918L391.52 365.678L351.71 347.828L367.91 342.908C374.13 340.658 377.06 335.998 379.31 332.138L381.54 325.518L375.09 280.518L390.93 274.068H419.18L426.61 291.368L428.18 304.668C428.298 305.26 428.542 305.819 428.896 306.307C429.25 306.796 429.705 307.202 430.23 307.498C430.78 307.756 431.251 308.156 431.594 308.657C431.937 309.159 432.139 309.742 432.18 310.348Z" fill="#FC9D9D"/>
<path d="M412.85 285.428C410.44 266.288 393.78 260.978 375.11 266.498C356.11 272.148 347.72 297.808 355.86 316.028C364 334.248 388.86 338.028 401.41 332.028C412.19 326.778 415.27 304.568 412.85 285.428Z" fill="#231F20"/>
<path opacity="0.15" d="M367.369 261.11C351.449 272.77 344.479 300.03 352.089 320.45C350.819 318.8 409.519 335.12 411.519 334.3C414.02 329.916 416.032 325.272 417.519 320.45C416.199 324.31 415.299 330.64 416.419 332.76C417.269 334.36 420.859 331.58 420.859 331.58C423.859 321.13 422.949 296.35 422.679 287.41C416.839 283.49 373.939 256.58 367.369 261.11Z" fill="black"/>
<path d="M366.53 261.109C373.137 256.567 380.983 254.172 389 254.249C400 253.949 429.14 261.159 430.57 288.159C428.2 290.019 424.28 289.749 422.57 291.329C423.57 311.469 418.81 336.789 414.85 346.629C413.46 345.349 411.99 344.059 410.43 342.819C413.136 336.237 414.823 329.28 415.43 322.189C413.839 328.711 411.133 334.909 407.43 340.509C388.74 326.289 362.3 317.509 351.83 322.419C344.25 301.999 350.56 272.769 366.53 261.109Z" fill="#21252B"/>
<g opacity="0.15">
<path opacity="0.15" d="M425.11 317.689C425.06 317.622 424.999 317.565 424.93 317.519C424.737 317.396 424.504 317.353 424.28 317.399C424.169 317.416 424.063 317.457 423.97 317.519C423.877 317.581 423.798 317.663 423.74 317.759C423.62 317.932 423.57 318.144 423.597 318.353C423.625 318.561 423.729 318.753 423.89 318.889C424.39 319.392 424.985 319.789 425.641 320.057C426.298 320.325 427.001 320.458 427.71 320.449C427.8 320.159 427.87 319.849 427.94 319.539L428.11 318.709C427.565 318.776 427.012 318.719 426.493 318.542C425.973 318.366 425.501 318.074 425.11 317.689Z" fill="black"/>
</g>
<path d="M428 311.288C425.65 311.288 424.38 306.288 424.38 301.518C424.38 296.748 425.65 291.738 428 291.738C430.35 291.738 431.62 296.738 431.62 301.518C431.62 306.298 430.29 311.288 428 311.288ZM428 292.918C426.93 292.918 425.46 296.238 425.46 301.618C425.46 306.998 426.93 310.318 428 310.318C429.07 310.318 430.54 306.988 430.54 301.618C430.54 296.248 429 292.918 428 292.918Z" fill="#21252B"/>
<path d="M505.13 903.23L500.13 910.07L480.53 900.26L463.09 868.79C463.154 863.43 462.35 858.1 460.71 852.999L423.49 711.139L421.28 702.719L408.66 654.619L457.27 655.899L462.65 701.539L480.58 853.769C481.125 856.98 482.189 860.08 483.73 862.95L505.13 903.23Z" fill="#FA9B9B"/>
<path opacity="0.15" d="M505.13 903.23L500.13 910.07L475.6 863.64C473.726 860.09 472.552 856.205 472.14 852.209L459.61 729.749C459.267 726.992 458.108 724.401 456.282 722.307C454.455 720.213 452.045 718.713 449.36 717.999L423.49 711.139L421.28 702.719L462.65 701.539L480.58 853.769C481.125 856.98 482.189 860.08 483.73 862.95L505.13 903.23Z" fill="black"/>
<path d="M525 915.55C525.141 915.91 525.193 916.29 525.152 916.67C525.112 917.05 524.98 917.42 524.768 917.73C524.555 918.05 524.269 918.31 523.934 918.5C523.598 918.68 523.223 918.78 522.84 918.79H498.12C495.093 918.8 492.102 918.14 489.364 916.84C486.625 915.55 484.209 913.67 482.29 911.33L468.71 894.69C468.479 894.4 468.164 894.18 467.807 894.08C467.45 893.97 467.069 893.98 466.716 894.09C466.362 894.21 466.054 894.44 465.833 894.74C465.612 895.04 465.489 895.4 465.48 895.77L464.76 918.77H462.24L459 896.4C457.566 887 458.958 877.39 463 868.79L485.3 895.79C487.643 898.67 490.708 900.88 494.183 902.19C497.658 903.5 501.418 903.87 505.08 903.25L518.93 909.55C521.588 910.78 523.734 912.91 525 915.55Z" fill="#21252B"/>
<path d="M365.72 343.129L338.08 348.259C334.573 348.942 331.273 350.432 328.441 352.612C325.61 354.792 323.326 357.602 321.77 360.819C320.946 362.523 320.338 364.324 319.96 366.179L302.72 450.109C302.199 452.651 302.251 455.277 302.871 457.797C303.491 460.317 304.664 462.668 306.305 464.678C307.945 466.688 310.013 468.309 312.358 469.421C314.702 470.533 317.265 471.11 319.86 471.109H372.34L372.73 448.219L334.34 447.559L349.45 369.559L365.72 343.129Z" fill="#3F4249"/>
<path d="M614.28 341.998L600.03 356.998L601.03 356.378C601.658 355.977 602.411 355.818 603.147 355.933C603.883 356.047 604.553 356.426 605.03 356.998C605.435 357.504 605.657 358.131 605.66 358.778C605.664 359.217 605.572 359.651 605.391 360.05C605.21 360.449 604.943 360.803 604.61 361.088L604.19 361.398C604.482 361.157 604.82 360.978 605.184 360.873C605.548 360.768 605.93 360.74 606.306 360.79C606.681 360.84 607.042 360.966 607.367 361.162C607.691 361.358 607.971 361.619 608.19 361.928C608.501 362.395 608.681 362.938 608.71 363.498C608.704 364.25 608.402 364.968 607.87 365.498L606.62 366.648C606.898 366.388 607.23 366.19 607.591 366.068C607.953 365.947 608.336 365.905 608.716 365.945C609.095 365.984 609.462 366.105 609.79 366.299C610.119 366.493 610.402 366.755 610.62 367.068C610.942 367.488 611.124 367.999 611.14 368.528C611.139 369.146 610.916 369.743 610.51 370.208L606.01 375.658L604.44 377.658C600.23 382.89 594.586 386.782 588.2 388.858L583.39 390.428L554.48 412.428L543.59 394.618L572.39 376.618L592.18 354.618L611.56 338.908C611.983 338.563 612.522 338.392 613.067 338.431C613.611 338.47 614.12 338.716 614.49 339.118C614.687 339.31 614.844 339.538 614.952 339.79C615.06 340.043 615.117 340.314 615.12 340.588C614.989 341.132 614.696 341.624 614.28 341.998Z" fill="#FC9D9D"/>
<path opacity="0.15" d="M585 385.318L580.81 386.678C580.354 386.798 579.928 387.013 579.56 387.308L550.86 408.148L554.21 412.548L583.12 390.548L587.93 388.978C594.317 386.902 599.96 383.01 604.17 377.778L605.74 375.778L610.24 370.328C610.646 369.863 610.87 369.266 610.87 368.648L604.27 375.358C600 380.708 591.34 383.218 585 385.318Z" fill="black"/>
<path d="M347.2 502.799L346.52 505.609C335.221 550.427 329.782 596.522 330.34 642.739L328.82 700.589L468.08 709.779L442.37 502.999L347.2 502.799Z" fill="#4D61FC"/>
<path d="M343.91 516.899L346.62 503.959H442.8L444.16 517.369L343.91 516.899Z" fill="#231F20"/>
<path opacity="0.2" d="M404.75 517.141C421.07 517.141 430.75 526.481 432.86 538.771L450.45 708.621L468.08 709.781L444.16 517.371L404.75 517.141Z" fill="black"/>
<path d="M503.31 440.7L451.78 400.38C452.114 402.699 452.304 405.037 452.35 407.38C452.354 409.433 452.068 411.476 451.5 413.45C450.43 417.02 448.508 420.277 445.9 422.94L443 426.09C442.72 426.378 442.5 426.719 442.354 427.093C442.208 427.468 442.138 427.868 442.15 428.27L442.43 504.08L346.62 504L339.26 399L337.33 362.48C337.33 355.83 345.91 346.35 355.97 344.93L370.56 342.18C378.35 349.67 404.63 351 420.66 343.6L434.04 346.6C441.82 348.6 447.04 352.01 452.26 356.94L514 410.81L552.71 388.61L564.28 404.36L519.28 440.7C516.991 442.462 514.184 443.417 511.295 443.417C508.406 443.417 505.599 442.462 503.31 440.7Z" fill="#3F4249"/>
<path opacity="0.3" d="M443 426.09C442.72 426.378 442.5 426.719 442.354 427.094C442.208 427.468 442.139 427.868 442.15 428.27L442.43 504.08H436.13L435.31 434.61C435.287 432.608 435.979 430.664 437.263 429.127C438.546 427.591 440.336 426.563 442.31 426.23L443 426.09Z" fill="black"/>
<path d="M395.32 485.609L393.37 485.909L392.51 487.679L391.63 485.919L389.69 485.649L391.09 484.259L390.74 482.329L392.49 483.229L394.22 482.309L393.9 484.249L395.32 485.609Z" fill="white"/>
<path d="M424.99 465.71L423.05 466L422.19 467.77L421.31 466.01L419.36 465.74L420.76 464.36L420.42 462.42L422.16 463.33L423.9 462.4L423.58 464.34L424.99 465.71Z" fill="white"/>
<path d="M358.03 466.06L356.09 466.35L355.23 468.12L354.35 466.36L352.4 466.09L353.8 464.71L353.46 462.77L355.2 463.68L356.94 462.75L356.62 464.69L358.03 466.06Z" fill="white"/>
<path d="M392.33 452.929L390.38 453.229L389.52 454.989L388.64 453.239L386.69 452.959L388.09 451.579L387.75 449.649L389.5 450.549L391.23 449.629L390.91 451.569L392.33 452.929Z" fill="white"/>
<path d="M356.75 499.919L354.81 500.209L353.95 501.979L353.07 500.219L351.12 499.949L352.52 498.569L352.18 496.629L353.92 497.539L355.66 496.609L355.34 498.549L356.75 499.919Z" fill="white"/>
<path d="M358.971 421.279L357.031 421.569L356.171 423.339L355.291 421.579L353.341 421.309L354.741 419.929L354.401 417.999L356.141 418.899L357.881 417.979L357.551 419.909L358.971 421.279Z" fill="white"/>
<path d="M379.92 410.81L377.97 411.1L377.11 412.87L376.23 411.11L374.29 410.84L375.69 409.46L375.34 407.52L377.09 408.43L378.82 407.5L378.5 409.44L379.92 410.81Z" fill="white"/>
<path d="M411.341 431.749L409.391 432.049L408.531 433.819L407.651 432.059L405.711 431.789L407.111 430.399L406.761 428.469L408.511 429.369L410.241 428.449L409.921 430.389L411.341 431.749Z" fill="white"/>
<path d="M432.29 400.329L430.34 400.629L429.48 402.389L428.6 400.639L426.65 400.369L428.05 398.989L427.71 397.049L429.46 397.949L431.19 397.029L430.87 398.969L432.29 400.329Z" fill="white"/>
<path d="M400.87 379.39L398.92 379.68L398.06 381.45L397.18 379.69L395.23 379.42L396.63 378.04L396.29 376.1L398.031 377.01L399.771 376.08L399.451 378.02L400.87 379.39Z" fill="white"/>
<path d="M358.971 379.39L357.031 379.68L356.171 381.45L355.291 379.69L353.341 379.42L354.741 378.04L354.401 376.1L356.141 377.01L357.881 376.08L357.551 378.02L358.971 379.39Z" fill="white"/>
<path d="M358.971 354.249L357.031 354.539L356.171 356.309L355.291 354.549L353.341 354.279L354.741 352.899L354.401 350.959L356.141 351.869L357.881 350.939L357.551 352.879L358.971 354.249Z" fill="white"/>
<path d="M327.551 385.669L325.611 385.959L324.751 387.729L323.871 385.969L321.921 385.699L323.321 384.319L322.981 382.389L324.721 383.289L326.461 382.369L326.131 384.309L327.551 385.669Z" fill="white"/>
<path d="M338.021 417.089L336.081 417.379L335.221 419.149L334.341 417.389L332.391 417.119L333.791 415.739L333.451 413.809L335.191 414.709L336.931 413.789L336.611 415.729L338.021 417.089Z" fill="white"/>
<path d="M317.08 438.039L315.13 438.329L314.27 440.099L313.39 438.339L311.44 438.069L312.85 436.689L312.5 434.749L314.25 435.659L315.98 434.729L315.66 436.669L317.08 438.039Z" fill="white"/>
<path d="M327.551 458.98L325.611 459.28L324.751 461.05L323.871 459.29L321.921 459.02L323.321 457.64L322.981 455.7L324.721 456.61L326.461 455.68L326.131 457.62L327.551 458.98Z" fill="white"/>
<path d="M432.29 360.529L430.34 360.828L429.48 362.599L428.6 360.839L426.65 360.569L428.05 359.189L427.71 357.249L429.46 358.148L431.19 357.229L430.87 359.169L432.29 360.529Z" fill="white"/>
<path d="M461.61 381.48L459.67 381.77L458.81 383.54L457.93 381.78L455.98 381.51L457.38 380.13L457.031 378.2L458.781 379.1L460.521 378.18L460.201 380.12L461.61 381.48Z" fill="white"/>
<path d="M434.38 494.589L432.44 494.889L431.58 496.659L430.7 494.899L428.75 494.629L430.15 493.249L429.8 491.309L431.55 492.219L433.29 491.289L432.96 493.229L434.38 494.589Z" fill="white"/>
<path d="M486.75 392.999L484.8 393.299L483.94 395.059L483.06 393.309L481.12 393.029L482.51 391.649L482.17 389.719L483.92 390.619L485.65 389.699L485.33 391.639L486.75 392.999Z" fill="white"/>
<path d="M486.75 419.179L484.8 419.479L483.94 421.249L483.06 419.489L481.12 419.219L482.51 417.839L482.17 415.899L483.92 416.809L485.65 415.879L485.33 417.819L486.75 419.179Z" fill="white"/>
<path d="M507.701 429.66L505.751 429.95L504.891 431.72L504.011 429.96L502.061 429.69L503.461 428.31L503.121 426.37L504.871 427.28L506.601 426.35L506.281 428.29L507.701 429.66Z" fill="white"/>
<path d="M530.741 429.66L528.791 429.95L527.931 431.72L527.051 429.96L525.101 429.69L526.501 428.31L526.161 426.37L527.911 427.28L529.641 426.35L529.321 428.29L530.741 429.66Z" fill="white"/>
<path d="M551.681 404.519L549.741 404.819L548.881 406.589L548.001 404.829L546.051 404.549L547.451 403.169L547.111 401.239L548.851 402.139L550.591 401.219L550.271 403.159L551.681 404.519Z" fill="white"/>
<path opacity="0.3" d="M342.68 447.65L334.34 447.53L340.45 416L340.3 416.09C339.28 416.712 338.398 417.537 337.71 418.514C337.022 419.492 336.542 420.6 336.3 421.77L330.54 449.77C330.508 449.918 330.51 450.071 330.546 450.217C330.582 450.364 330.651 450.501 330.747 450.617C330.843 450.734 330.964 450.827 331.102 450.89C331.239 450.952 331.389 450.983 331.54 450.98H342.91L342.68 447.65Z" fill="black"/>
<path opacity="0.3" d="M344.581 446.779L340.461 415.949L346.621 503.959H349.951L344.581 446.779Z" fill="black"/>
</svg>
